<?xml version="1.0" encoding="utf-8"?>
<!-- Generator: Adobe Illustrator 27.0.1, SVG Export Plug-In . SVG Version: 6.00 Build 0)  -->
<svg version="1.1" id="레이어_1" xmlns="http://www.w3.org/2000/svg" xmlns:xlink="http://www.w3.org/1999/xlink" x="0px"
	 y="0px" viewBox="0 0 80 80" style="enable-background:new 0 0 80 80;" xml:space="preserve">
<style type="text/css">
	.st0{fill:#FFFFFF;}
</style>
<path class="st0" d="M68.9,35.5H17.07L34.53,7.48c1.31-2.11,0.67-4.88-1.44-6.2c-2.11-1.31-4.88-0.67-6.2,1.44L5.14,37.62
	c-0.11,0.17-0.2,0.35-0.29,0.54c-0.01,0.01-0.01,0.02-0.01,0.04c-0.1,0.23-0.17,0.46-0.23,0.7c-0.02,0.07-0.03,0.13-0.04,0.2
	c-0.05,0.22-0.08,0.45-0.09,0.67c0,0.03-0.01,0.07-0.01,0.1c-0.01,0.25,0.01,0.5,0.05,0.75c0.01,0.07,0.02,0.14,0.04,0.21
	c0.04,0.21,0.09,0.42,0.16,0.63c0.02,0.05,0.03,0.09,0.04,0.14c0.08,0.2,0.16,0.4,0.27,0.59c0.02,0.04,0.05,0.08,0.08,0.12
	c0.01,0.02,0.02,0.05,0.04,0.08l21.76,34.9c0.85,1.37,2.32,2.12,3.82,2.12c0.81,0,1.64-0.22,2.38-0.68c2.11-1.31,2.75-4.09,1.44-6.2
	L17.07,44.5H68.9c2.49,0,4.5-2.01,4.5-4.5S71.38,35.5,68.9,35.5z"/>
</svg>
